<?xml version="1.0" standalone="no"?>
<!DOCTYPE svg PUBLIC "-//W3C//DTD SVG 20010904//EN"
 "http://www.w3.org/TR/2001/REC-SVG-20010904/DTD/svg10.dtd">
<svg version="1.0" xmlns="http://www.w3.org/2000/svg"
 width="1024.000000pt" height="1024.000000pt" viewBox="0 0 1024.000000 1024.000000"
 preserveAspectRatio="xMidYMid meet">
<metadata>
Created by potrace 1.16, written by Peter Selinger 2001-2019
</metadata>
<g transform="translate(0.000000,1024.000000) scale(0.100000,-0.100000)"
fill="#fff" stroke="none">
<path d="M5628 9629 c-26 -15 -23 -72 8 -133 60 -119 242 -337 354 -422 27
-21 48 -40 45 -42 -2 -2 -59 14 -127 36 -261 86 -453 137 -883 236 -226 52
-637 131 -895 171 -303 48 -489 67 -640 67 -220 0 -248 -38 -124 -172 134
-145 352 -270 667 -385 27 -9 47 -19 45 -20 -2 -2 -118 -33 -259 -69 -262 -66
-461 -122 -654 -181 -60 -18 -166 -50 -235 -71 -69 -20 -137 -43 -152 -51 -15
-7 -29 -13 -30 -12 -2 0 -16 -3 -31 -6 -41 -11 -32 -40 13 -41 41 -2 283 25
559 61 107 14 196 24 198 22 2 -2 -119 -59 -269 -126 -150 -68 -291 -131 -313
-141 -57 -27 -275 -125 -375 -170 -430 -192 -500 -239 -500 -328 0 -126 237
-155 578 -72 65 16 125 32 136 36 12 5 17 3 15 -4 -2 -6 -123 -132 -269 -279
-428 -433 -619 -641 -704 -768 -50 -75 -58 -120 -30 -176 22 -45 103 -72 209
-72 89 1 255 30 338 59 22 8 41 13 43 12 1 -2 -8 -68 -21 -148 -61 -370 -85
-671 -61 -755 12 -41 42 -65 82 -65 32 0 108 55 158 116 44 54 46 55 55 32 8
-21 76 -188 88 -215 3 -7 -12 -14 -44 -18 -254 -35 -380 -142 -445 -380 -24
-88 -34 -294 -19 -391 30 -192 126 -372 277 -514 103 -98 260 -177 407 -205
71 -14 289 -14 332 -1 17 6 28 -8 75 -91 58 -103 126 -193 194 -257 46 -43
150 -125 181 -142 11 -6 52 -29 90 -51 149 -86 378 -189 608 -275 15 -6 30
-14 32 -18 3 -4 -57 -8 -133 -9 -75 -1 -157 -3 -182 -6 -25 -2 -85 -6 -135
-10 -49 -3 -128 -10 -175 -15 -47 -5 -107 -12 -135 -15 -27 -3 -61 -8 -75 -10
-14 -3 -43 -7 -65 -11 -73 -10 -99 -15 -185 -34 -147 -32 -143 -24 -59 -116
219 -239 691 -695 1004 -969 282 -246 542 -483 725 -659 64 -61 134 -129 157
-150 l42 -39 73 59 c98 78 431 362 533 454 27 25 84 75 125 110 83 71 268 240
400 365 47 44 123 113 170 154 236 205 730 722 730 763 0 6 -3 9 -6 6 -3 -3
-43 5 -90 18 -47 12 -99 25 -117 28 -18 3 -57 10 -87 16 -30 6 -66 13 -80 16
-14 2 -47 9 -75 14 -27 5 -72 12 -99 15 -27 3 -53 8 -57 10 -3 3 -31 7 -60 9
-30 3 -94 10 -144 16 -49 5 -124 13 -165 16 -71 5 -139 11 -150 14 -3 0 40 18
95 39 196 75 462 198 573 266 114 69 248 194 314 291 19 29 52 85 73 125 l38
74 166 0 c198 0 268 14 409 84 306 150 490 464 477 816 -5 138 -9 166 -40 262
-60 191 -171 287 -370 321 -78 14 -94 19 -89 32 26 62 96 282 114 358 12 50
26 92 31 92 5 0 9 -4 9 -9 0 -20 101 -118 140 -136 49 -22 83 -14 114 28 20
26 21 42 23 225 0 108 -3 229 -8 267 -5 39 -11 96 -14 127 -3 32 -7 72 -10 90
-3 18 -14 85 -24 148 -11 63 -18 117 -15 119 2 2 37 -27 77 -65 100 -92 174
-136 241 -142 44 -4 57 -1 80 19 55 49 41 127 -53 291 -113 196 -497 674 -748
929 l-84 85 50 32 c139 90 208 272 103 272 -38 0 -83 -56 -133 -169 -45 -100
-59 -114 -59 -59 0 56 -51 269 -99 409 -70 209 -141 380 -241 584 -177 359
-278 467 -366 391 -35 -30 -44 -91 -28 -201 21 -142 102 -383 200 -590 15 -33
30 -64 33 -70 9 -19 -75 59 -344 320 -313 304 -432 411 -604 541 -205 154
-359 221 -423 183z m-547 -888 c200 -97 528 -276 554 -302 7 -7 -15 -8 -65 -4
-41 3 -111 8 -155 10 -149 9 -401 52 -447 76 -10 5 -18 15 -18 22 0 16 -41
143 -74 230 -26 68 -29 77 -23 77 2 0 105 -49 228 -109z m-528 -332 c107 -61
392 -181 495 -208 23 -7 42 -14 42 -16 0 -6 -160 11 -190 20 -3 1 -23 5 -45
10 -43 8 -197 64 -205 74 -3 3 -27 17 -55 31 -54 27 -172 118 -220 169 l-30
33 70 -37 c39 -21 101 -55 138 -76z m362 -517 c-22 -20 -56 -49 -75 -64 -59
-46 -100 -81 -141 -120 -21 -21 -41 -38 -44 -38 -3 0 -18 -11 -33 -24 -178
-154 -262 -230 -258 -233 4 -5 163 102 256 172 116 87 109 78 -140 -161 -79
-76 -168 -166 -198 -199 -56 -62 -100 -135 -82 -135 6 0 15 -10 21 -23 13 -30
120 -72 211 -85 112 -15 252 -5 396 28 91 21 355 102 407 125 74 33 127 55
132 55 2 0 -25 -32 -60 -71 -36 -39 -77 -94 -92 -121 l-28 -51 41 7 c127 20
535 212 806 379 67 41 81 45 71 20 -4 -10 -9 -24 -12 -31 -3 -8 0 -10 11 -6
11 4 15 2 11 -8 -3 -8 2 -21 12 -29 17 -13 17 -13 3 5 -11 15 -11 18 -1 12 8
-5 16 -4 21 4 5 8 9 7 13 -5 4 -9 3 -13 -3 -10 -6 3 -10 -1 -10 -10 0 -11 5
-15 16 -11 12 5 14 1 9 -17 -3 -12 -3 -17 2 -12 4 6 18 10 31 11 18 1 22 -3
19 -18 -4 -12 -1 -18 6 -15 7 3 11 10 9 16 -2 9 3 9 17 2 10 -6 28 -9 40 -6
26 5 35 -9 16 -25 -12 -10 -15 -10 -15 2 0 7 -8 14 -18 14 -10 0 -18 -8 -18
-18 0 -20 16 -25 16 -5 0 7 7 4 15 -7 8 -11 15 -15 15 -8 0 6 15 10 39 9 26
-2 37 1 34 9 -2 7 0 15 6 19 6 3 11 -1 11 -11 0 -16 1 -16 15 2 13 16 14 16 9
1 -5 -13 -2 -16 10 -11 9 3 14 10 11 14 -3 5 3 8 13 7 28 -2 83 24 75 36 -3 5
-1 7 5 3 12 -7 205 90 311 159 l75 47 55 -58 c74 -78 137 -129 192 -153 66
-30 94 -27 133 15 27 30 34 33 39 19 10 -26 45 -232 53 -315 l7 -75 -54 55
c-30 30 -73 78 -96 105 -22 28 -87 105 -142 173 -56 67 -104 122 -107 122 -10
0 9 -110 36 -210 16 -58 53 -186 83 -285 59 -194 129 -505 146 -650 11 -90 30
-474 27 -550 l-1 -40 -56 0 -56 -1 -17 73 c-84 356 -343 639 -662 723 -298 78
-620 -12 -838 -235 -139 -143 -240 -338 -268 -521 -7 -46 -16 -73 -22 -70 -83
37 -148 59 -192 63 -62 7 -162 -11 -218 -38 -52 -25 -56 -24 -56 11 0 86 -73
284 -148 400 -169 262 -419 406 -718 415 -282 9 -546 -119 -724 -351 -16 -21
-33 -43 -38 -49 -4 -5 -26 -44 -49 -85 -43 -79 -76 -167 -93 -247 -22 -102
-14 -93 -77 -93 l-56 0 6 233 c3 127 8 241 11 252 2 12 7 48 11 80 20 178 87
472 156 680 35 106 45 125 85 163 24 23 44 44 44 47 0 3 16 21 35 41 19 19 35
32 35 29 0 -4 12 8 27 27 42 52 167 170 171 160 1 -4 -14 -42 -34 -83 -39 -80
-55 -149 -34 -149 24 0 138 61 231 123 52 35 171 117 264 182 344 241 505 341
530 331 8 -3 14 0 12 6 -3 13 61 50 74 43 5 -4 9 0 9 7 0 7 15 19 33 27 32 14
63 29 145 70 23 12 47 19 52 16 6 -3 10 -2 10 4 0 9 43 29 65 30 6 0 -8 -16
-30 -37z m2781 -269 c58 -121 108 -253 96 -253 -4 0 -18 10 -32 21 -40 32
-171 119 -179 119 -5 0 -13 -24 -19 -52 -83 -401 -90 -433 -98 -425 -2 2 -13
49 -24 103 -11 54 -33 166 -50 247 -37 180 -37 197 -7 205 50 13 201 98 220
124 11 15 24 28 29 28 4 0 33 -53 64 -117z m-4376 -381 c0 -5 -11 -22 -25 -38
-14 -16 -25 -33 -25 -38 0 -4 -13 -25 -30 -45 -16 -20 -39 -47 -50 -61 -119
-147 -248 -289 -354 -390 l-37 -35 7 30 c4 17 12 36 18 44 6 8 10 16 8 18 -5
5 24 101 63 213 49 141 43 131 79 125 25 -5 46 3 116 45 47 29 99 60 117 71
18 10 49 29 70 43 44 29 43 28 43 18z m-461 -243 c-16 -57 -46 -166 -65 -243
-30 -121 -83 -256 -100 -256 -18 0 110 433 170 574 29 68 27 33 -5 -75z m1340
-744 c6 -3 23 -9 38 -11 45 -8 174 -80 237 -132 141 -116 252 -311 282 -492
33 -201 -2 -402 -98 -565 -54 -91 -186 -222 -273 -270 -173 -97 -380 -129
-559 -86 -130 31 -235 89 -327 180 -119 120 -191 252 -225 414 -20 93 -16 261
8 361 77 327 363 584 683 614 72 7 215 -1 234 -13z m2229 -1 c287 -68 526
-314 595 -611 23 -99 22 -276 -2 -376 -57 -240 -200 -422 -405 -517 -121 -57
-205 -74 -328 -67 -260 14 -464 125 -616 336 -53 73 -82 137 -109 240 -57 224
-19 480 99 663 179 278 467 403 766 332z m-1183 -797 c22 -6 63 -27 91 -45 48
-31 52 -37 57 -83 16 -129 76 -291 148 -395 82 -120 218 -240 339 -300 200
-100 471 -116 695 -42 222 73 390 210 503 409 59 103 108 254 111 338 1 21 4
23 34 16 17 -4 40 -7 51 -7 17 1 18 -5 13 -71 -11 -153 -132 -654 -224 -926
-136 -406 -255 -558 -588 -753 -298 -174 -691 -330 -999 -395 -119 -25 -150
-28 -331 -28 -221 1 -290 11 -500 70 -230 66 -472 164 -704 287 -253 132 -400
246 -506 389 -127 172 -263 553 -329 924 -9 50 -23 121 -32 158 -8 37 -12 73
-8 79 4 5 2 13 -3 17 -8 5 -26 110 -39 218 -3 34 -5 33 68 48 13 2 19 -6 23
-34 33 -218 120 -396 258 -530 108 -105 234 -179 375 -220 84 -24 230 -41 302
-36 124 9 173 16 191 26 11 5 19 7 19 5 0 -3 37 8 83 25 313 115 530 399 572
750 6 44 7 46 68 76 34 18 71 34 82 36 41 9 141 6 180 -6z m-2470 -96 c47 -21
69 -44 89 -91 16 -39 80 -319 74 -325 -2 -2 -21 12 -43 31 -84 75 -252 177
-343 210 -57 21 -162 37 -208 31 -24 -2 -44 -1 -44 2 0 13 65 69 114 97 108
61 279 83 361 45z m4981 8 c82 -20 156 -61 211 -118 30 -32 29 -41 -4 -32 -40
11 -99 4 -168 -20 -69 -24 -188 -80 -193 -91 -2 -5 -8 -8 -14 -8 -12 0 -144
-91 -180 -125 -43 -40 -44 -55 12 165 18 69 36 127 41 128 5 2 9 10 9 18 0 8
4 14 9 14 5 0 12 12 15 26 4 15 18 30 37 38 41 17 164 20 225 5z m-5249 -320
c23 -6 50 -19 60 -28 10 -10 24 -16 31 -13 6 2 12 0 12 -5 0 -6 6 -10 14 -10
19 0 206 -125 201 -134 -3 -4 1 -10 7 -12 7 -3 3 -6 -9 -6 -13 -1 -23 5 -23
12 0 7 -3 8 -8 2 -4 -6 -20 -10 -35 -10 -16 1 -36 -4 -45 -11 -14 -10 -13 -14
6 -38 12 -16 18 -34 15 -43 -4 -10 -2 -14 5 -9 13 8 112 -90 112 -111 0 -8 4
-12 10 -8 5 3 26 -9 47 -28 21 -19 57 -42 80 -53 48 -21 49 -23 73 -119 9 -38
28 -103 40 -142 13 -40 20 -76 16 -80 -14 -14 -202 -6 -283 12 -131 29 -214
75 -313 174 -155 153 -212 286 -224 519 -2 29 1 55 6 58 4 3 6 9 3 14 -8 12
14 52 34 65 39 24 86 26 168 4z m5436 6 c36 -15 51 -64 50 -170 -4 -284 -191
-549 -453 -641 -99 -34 -317 -56 -349 -35 -12 8 -7 34 30 156 28 94 49 149 59
152 8 2 31 12 50 21 19 8 40 15 47 13 7 -1 17 9 24 21 17 34 61 78 71 72 5 -3
8 -2 7 3 -3 20 2 27 11 13 8 -12 10 -12 10 5 0 11 14 31 30 45 17 14 30 30 30
36 0 6 12 23 26 38 25 25 26 27 10 45 -12 13 -27 17 -56 14 -34 -3 -40 -1 -40
16 0 23 65 73 174 132 127 68 208 87 269 64z m-3167 -2315 c120 -91 186 -135
329 -217 144 -84 379 -203 399 -203 9 0 16 -4 16 -10 0 -5 9 -10 20 -10 11 0
20 -5 20 -11 0 -5 5 -7 10 -4 6 4 18 1 27 -7 15 -11 16 -11 10 5 -4 11 -3 16
4 12 5 -4 7 -15 4 -26 -4 -10 -2 -19 3 -19 6 0 13 -39 17 -87 7 -95 22 -179
24 -133 l1 25 20 -30 c11 -16 20 -33 20 -37 0 -11 -182 -66 -300 -90 -148 -31
-362 -31 -515 0 -170 35 -269 68 -258 86 4 6 10 18 13 26 7 22 4 784 -4 816
l-7 26 24 -18 c13 -11 69 -53 123 -94z"/>
<path d="M6050 6999 c-151 -13 -209 -42 -247 -125 -21 -47 -25 -70 -25 -146 0
-50 4 -94 9 -99 11 -11 55 -16 203 -24 263 -14 493 -47 670 -95 245 -67 336
-107 430 -185 23 -20 44 -34 46 -33 1 2 -2 24 -7 48 -41 190 -190 402 -354
505 -173 108 -484 174 -725 154z"/>
<path d="M3980 6986 c-294 -45 -427 -102 -571 -246 -115 -115 -184 -224 -229
-364 -12 -37 -19 -70 -16 -73 3 -3 27 11 53 31 96 75 251 136 476 187 109 25
194 38 407 64 19 2 115 9 212 16 98 7 183 16 190 20 8 5 12 38 12 96 1 148
-44 223 -156 259 -69 22 -267 27 -378 10z"/>
<path d="M4043 6065 c-176 -38 -332 -182 -395 -363 -19 -57 -23 -87 -23 -197
l0 -130 39 -80 c90 -184 247 -285 443 -287 194 -1 368 106 464 285 43 80 59
147 59 242 0 271 -171 497 -406 535 -75 12 -104 12 -181 -5z"/>
<path d="M6072 6069 c-180 -30 -342 -203 -382 -407 -16 -79 -8 -230 15 -297
40 -117 143 -244 241 -297 142 -77 333 -79 484 -5 57 28 158 127 194 192 113
203 65 496 -109 670 -72 72 -160 121 -252 140 -75 16 -113 17 -191 4z"/>
<path d="M5081 4229 c-41 -8 -128 -55 -119 -65 7 -6 358 -11 358 -5 0 9 -62
47 -95 59 -46 16 -95 20 -144 11z"/>
<path d="M2970 9086 c-92 -29 -142 -83 -124 -133 34 -95 192 -95 569 1 107 27
140 34 168 35 24 1 21 18 -5 32 -29 16 -153 46 -263 64 -104 17 -294 18 -345
1z"/>
<path d="M7885 8037 c-96 -27 -237 -88 -238 -102 -2 -27 225 -117 353 -140 81
-15 188 -3 237 26 56 35 64 118 16 171 -61 67 -221 87 -368 45z"/>
<path d="M2940 2852 c0 -7 -4 -11 -9 -8 -20 13 -86 -217 -145 -509 l-23 -112
-105 -104 c-123 -122 -238 -250 -238 -265 0 -16 39 -48 102 -84 32 -17 60 -35
62 -39 5 -7 -28 -35 -119 -101 -158 -116 -575 -519 -575 -556 0 -9 -5 -12 -12
-8 -7 5 -8 3 -3 -6 4 -7 3 -15 -3 -19 -7 -4 -8 -12 -1 -21 8 -13 10 -13 18 0
9 12 11 12 17 -3 4 -11 0 -25 -10 -36 -9 -10 -16 -20 -16 -24 0 -11 43 2 52
15 12 19 10 0 -3 -24 -7 -12 -7 -18 -1 -14 6 3 13 0 15 -6 4 -10 6 -10 6 0 1
7 6 10 11 7 6 -3 10 -1 10 4 0 6 4 10 9 9 12 -4 160 116 289 232 56 51 104 91
105 89 50 -75 296 -383 362 -454 l47 -50 -38 60 c-20 33 -45 71 -54 85 -18 27
-56 98 -48 90 3 -3 42 -51 87 -107 45 -57 83 -103 86 -103 9 0 -86 141 -172
257 -61 83 -159 189 -143 156 18 -38 6 -27 -45 43 -26 36 -44 69 -38 72 5 4
26 20 46 36 31 24 42 27 60 19 65 -31 210 -94 267 -117 36 -15 74 -31 85 -36
44 -20 288 -104 421 -146 173 -53 421 -114 609 -148 211 -38 435 -75 482 -79
24 -2 45 -6 49 -10 9 -9 35 4 28 15 -3 5 3 4 15 -4 15 -9 21 -24 22 -53 1 -22
3 -51 4 -65 1 -14 4 -70 5 -125 3 -127 19 -235 38 -257 10 -12 26 -16 60 -14
47 3 102 23 102 36 0 4 10 10 22 13 21 6 21 8 15 164 -4 87 -10 262 -13 388
-4 127 -9 234 -12 239 -3 5 0 6 6 2 22 -13 13 30 -14 70 -38 57 -93 111 -131
129 -31 15 -36 15 -59 1 -28 -19 -27 -11 -25 -203 2 -84 0 -153 -4 -153 -3 0
-23 9 -45 20 -22 11 -46 20 -55 20 -8 0 -15 4 -15 8 0 5 -6 9 -12 9 -7 1 -58
18 -113 38 -55 20 -109 39 -120 42 -11 2 -29 9 -40 14 -11 5 -69 27 -130 48
-60 21 -109 43 -108 49 2 6 -4 9 -12 5 -14 -5 -338 120 -359 139 -6 4 -16 8
-22 8 -7 0 -42 13 -77 30 -36 17 -68 30 -70 30 -21 0 -567 270 -587 290 -3 3
-22 14 -42 24 -21 11 -38 24 -38 29 0 6 -3 8 -6 4 -4 -3 -20 1 -37 9 -23 12
-27 18 -16 25 13 8 169 160 169 164 0 1 29 33 65 70 36 37 63 71 60 76 -6 9 1
47 59 314 19 88 39 196 45 240 7 44 14 91 17 105 3 19 2 22 -6 10 -9 -13 -10
-13 -10 0 0 13 -1 13 -10 0 -8 -13 -11 -12 -24 5 -9 12 -15 15 -16 7z"/>
<path d="M7290 2828 c0 -9 -9 -18 -20 -21 -11 -3 -20 0 -20 5 0 6 -6 5 -15 -2
-13 -11 -14 -10 -9 6 6 15 4 17 -6 7 -21 -20 7 -216 72 -493 l32 -135 172
-172 c94 -94 168 -175 165 -180 -3 -6 -37 -27 -76 -48 -38 -21 -81 -46 -95
-55 -39 -27 -127 -70 -134 -65 -3 3 -4 2 -1 -1 5 -7 -204 -116 -275 -144 -19
-8 -37 -16 -40 -19 -10 -12 -86 -49 -105 -53 -11 -1 -22 -5 -25 -8 -9 -10
-124 -63 -137 -63 -7 0 -13 -4 -13 -9 0 -4 -6 -8 -14 -8 -8 0 -30 -9 -48 -19
-18 -11 -107 -49 -197 -86 -91 -36 -169 -69 -175 -73 -6 -4 -38 -18 -71 -31
-33 -13 -98 -42 -145 -63 -46 -22 -89 -40 -95 -41 -5 -1 -12 -4 -15 -7 -3 -3
-26 -15 -53 -28 -26 -13 -45 -27 -42 -31 2 -5 27 -5 54 0 101 16 201 19 201 6
0 -7 5 -4 11 6 11 20 49 23 49 5 0 -9 3 -8 10 2 8 13 11 12 25 -5 14 -17 16
-17 11 -2 -6 19 9 24 18 5 5 -10 7 -10 12 0 3 6 10 12 15 12 6 0 7 -5 4 -11
-7 -10 21 -38 39 -39 6 0 1 6 -10 14 -11 8 -15 18 -10 23 5 4 11 3 13 -3 2 -7
13 -10 23 -7 12 3 20 0 20 -7 0 -7 7 -10 15 -6 8 3 15 0 15 -7 0 -8 3 -8 9 2
5 7 14 11 20 7 7 -5 9 -1 4 11 -5 17 -5 17 11 2 16 -15 25 -14 119 11 221 59
496 148 637 205 132 54 317 134 384 166 61 30 82 36 97 28 10 -5 19 -14 19
-19 0 -6 -28 -43 -63 -83 -92 -106 -177 -213 -233 -292 -71 -100 -73 -106 -15
-50 52 51 68 50 30 -1 -35 -48 70 66 163 177 126 150 158 190 158 200 0 21 28
1 207 -144 185 -151 300 -239 336 -259 18 -9 18 -9 1 19 l-18 28 24 -20 c13
-11 20 -15 17 -8 -10 16 11 27 26 14 7 -5 19 -6 26 -2 9 6 10 11 2 15 -6 4
-11 2 -11 -5 0 -7 -3 -9 -6 -6 -4 4 -1 20 6 37 10 23 16 28 25 20 9 -8 15 -8
20 0 3 5 1 10 -5 10 -6 0 -8 5 -5 10 3 6 1 10 -4 10 -6 0 -11 6 -11 13 0 18
-47 71 -200 227 -148 151 -246 237 -395 350 -60 46 -110 85 -110 86 0 2 37 26
82 54 45 28 85 56 89 62 8 12 -296 316 -371 371 l-48 34 -37 184 c-41 200 -87
378 -101 394 -6 5 -9 3 -9 -7z"/>
<path d="M3701 2188 c37 -35 169 -144 294 -243 264 -210 583 -466 740 -595 60
-49 113 -90 118 -90 33 0 -281 301 -538 516 -342 285 -580 455 -625 446 -3 -1
-16 6 -30 14 -14 8 5 -13 41 -48z"/>
<path d="M6402 2000 c-64 -34 -188 -108 -274 -165 -227 -151 -218 -160 22 -22
197 112 390 232 390 242 0 12 -28 1 -138 -55z"/>
<path d="M5787 1439 c-10 -6 -27 -12 -38 -14 -12 -2 -58 -22 -102 -44 -86 -42
-150 -93 -155 -125 -3 -16 1 -18 30 -12 18 3 55 18 83 32 63 33 185 114 185
124 0 4 11 12 25 18 14 6 25 15 25 20 0 11 -32 12 -53 1z"/>
<path d="M5764 1342 c-132 -88 -118 -64 -118 -209 1 -164 13 -550 20 -629 5
-58 6 -61 30 -56 15 3 26 -1 29 -10 4 -9 18 -13 40 -12 19 2 35 -1 35 -5 0 -5
14 -14 30 -20 53 -18 55 -4 54 444 -1 464 -7 545 -38 545 -6 0 -43 -21 -82
-48z"/>
</g>
</svg>
